<mxfile host="app.diagrams.net" agent="Mozilla/5.0 (Windows NT 10.0; Win64; x64) AppleWebKit/537.36 (KHTML, like Gecko) Chrome/131.0.0.0 Safari/537.36" version="26.0.9">
  <diagram name="Pagina-1" id="henmbYN29EE_DPEdi9ca">
    <mxGraphModel dx="1050" dy="522" grid="1" gridSize="10" guides="1" tooltips="1" connect="1" arrows="1" fold="1" page="1" pageScale="1" pageWidth="827" pageHeight="1169" math="0" shadow="0">
      <root>
        <mxCell id="0" />
        <mxCell id="1" parent="0" />
        <mxCell id="bVHCPU4Zqe0lrWtXgFq0-3" value="" style="edgeStyle=orthogonalEdgeStyle;rounded=0;orthogonalLoop=1;jettySize=auto;html=1;" edge="1" parent="1" source="bVHCPU4Zqe0lrWtXgFq0-1" target="bVHCPU4Zqe0lrWtXgFq0-2">
          <mxGeometry relative="1" as="geometry" />
        </mxCell>
        <mxCell id="bVHCPU4Zqe0lrWtXgFq0-1" value="START" style="ellipse;whiteSpace=wrap;html=1;" vertex="1" parent="1">
          <mxGeometry x="354" y="30" width="120" height="80" as="geometry" />
        </mxCell>
        <mxCell id="bVHCPU4Zqe0lrWtXgFq0-5" value="" style="edgeStyle=orthogonalEdgeStyle;rounded=0;orthogonalLoop=1;jettySize=auto;html=1;" edge="1" parent="1" source="bVHCPU4Zqe0lrWtXgFq0-2" target="bVHCPU4Zqe0lrWtXgFq0-4">
          <mxGeometry relative="1" as="geometry" />
        </mxCell>
        <mxCell id="bVHCPU4Zqe0lrWtXgFq0-2" value="READ A" style="shape=parallelogram;perimeter=parallelogramPerimeter;whiteSpace=wrap;html=1;fixedSize=1;" vertex="1" parent="1">
          <mxGeometry x="354" y="200" width="120" height="60" as="geometry" />
        </mxCell>
        <mxCell id="bVHCPU4Zqe0lrWtXgFq0-7" value="" style="edgeStyle=orthogonalEdgeStyle;rounded=0;orthogonalLoop=1;jettySize=auto;html=1;" edge="1" parent="1" source="bVHCPU4Zqe0lrWtXgFq0-4" target="bVHCPU4Zqe0lrWtXgFq0-6">
          <mxGeometry relative="1" as="geometry" />
        </mxCell>
        <mxCell id="bVHCPU4Zqe0lrWtXgFq0-4" value="READ B" style="shape=parallelogram;perimeter=parallelogramPerimeter;whiteSpace=wrap;html=1;fixedSize=1;" vertex="1" parent="1">
          <mxGeometry x="354" y="340" width="120" height="60" as="geometry" />
        </mxCell>
        <mxCell id="bVHCPU4Zqe0lrWtXgFq0-8" style="edgeStyle=orthogonalEdgeStyle;rounded=0;orthogonalLoop=1;jettySize=auto;html=1;exitX=1;exitY=0.5;exitDx=0;exitDy=0;entryX=1;entryY=0.5;entryDx=0;entryDy=0;" edge="1" parent="1" source="bVHCPU4Zqe0lrWtXgFq0-6" target="bVHCPU4Zqe0lrWtXgFq0-2">
          <mxGeometry relative="1" as="geometry">
            <Array as="points">
              <mxPoint x="600" y="510" />
              <mxPoint x="600" y="230" />
            </Array>
          </mxGeometry>
        </mxCell>
        <mxCell id="bVHCPU4Zqe0lrWtXgFq0-9" value="FALSE" style="edgeLabel;html=1;align=center;verticalAlign=middle;resizable=0;points=[];" vertex="1" connectable="0" parent="bVHCPU4Zqe0lrWtXgFq0-8">
          <mxGeometry x="-0.7196" y="2" relative="1" as="geometry">
            <mxPoint as="offset" />
          </mxGeometry>
        </mxCell>
        <mxCell id="bVHCPU4Zqe0lrWtXgFq0-16" value="" style="edgeStyle=orthogonalEdgeStyle;rounded=0;orthogonalLoop=1;jettySize=auto;html=1;" edge="1" parent="1" source="bVHCPU4Zqe0lrWtXgFq0-6" target="bVHCPU4Zqe0lrWtXgFq0-15">
          <mxGeometry relative="1" as="geometry" />
        </mxCell>
        <mxCell id="bVHCPU4Zqe0lrWtXgFq0-6" value="A &amp;lt; B" style="rhombus;whiteSpace=wrap;html=1;" vertex="1" parent="1">
          <mxGeometry x="374" y="470" width="80" height="80" as="geometry" />
        </mxCell>
        <mxCell id="bVHCPU4Zqe0lrWtXgFq0-20" value="" style="edgeStyle=orthogonalEdgeStyle;rounded=0;orthogonalLoop=1;jettySize=auto;html=1;" edge="1" parent="1" source="bVHCPU4Zqe0lrWtXgFq0-15" target="bVHCPU4Zqe0lrWtXgFq0-19">
          <mxGeometry relative="1" as="geometry" />
        </mxCell>
        <mxCell id="bVHCPU4Zqe0lrWtXgFq0-15" value="SOMMA = B" style="whiteSpace=wrap;html=1;" vertex="1" parent="1">
          <mxGeometry x="160" y="480" width="120" height="60" as="geometry" />
        </mxCell>
        <mxCell id="bVHCPU4Zqe0lrWtXgFq0-22" value="" style="edgeStyle=orthogonalEdgeStyle;rounded=0;orthogonalLoop=1;jettySize=auto;html=1;" edge="1" parent="1" source="bVHCPU4Zqe0lrWtXgFq0-19" target="bVHCPU4Zqe0lrWtXgFq0-21">
          <mxGeometry relative="1" as="geometry" />
        </mxCell>
        <mxCell id="bVHCPU4Zqe0lrWtXgFq0-19" value="I = B" style="whiteSpace=wrap;html=1;" vertex="1" parent="1">
          <mxGeometry x="160" y="600" width="120" height="60" as="geometry" />
        </mxCell>
        <mxCell id="bVHCPU4Zqe0lrWtXgFq0-24" value="" style="edgeStyle=orthogonalEdgeStyle;rounded=0;orthogonalLoop=1;jettySize=auto;html=1;" edge="1" parent="1" source="bVHCPU4Zqe0lrWtXgFq0-21" target="bVHCPU4Zqe0lrWtXgFq0-23">
          <mxGeometry relative="1" as="geometry" />
        </mxCell>
        <mxCell id="bVHCPU4Zqe0lrWtXgFq0-21" value="I -= 1" style="whiteSpace=wrap;html=1;" vertex="1" parent="1">
          <mxGeometry x="160" y="740" width="120" height="60" as="geometry" />
        </mxCell>
        <mxCell id="bVHCPU4Zqe0lrWtXgFq0-26" value="" style="edgeStyle=orthogonalEdgeStyle;rounded=0;orthogonalLoop=1;jettySize=auto;html=1;" edge="1" parent="1" source="bVHCPU4Zqe0lrWtXgFq0-23" target="bVHCPU4Zqe0lrWtXgFq0-25">
          <mxGeometry relative="1" as="geometry" />
        </mxCell>
        <mxCell id="bVHCPU4Zqe0lrWtXgFq0-23" value="SOMMA += I" style="whiteSpace=wrap;html=1;" vertex="1" parent="1">
          <mxGeometry x="160" y="880" width="120" height="60" as="geometry" />
        </mxCell>
        <mxCell id="bVHCPU4Zqe0lrWtXgFq0-28" value="" style="edgeStyle=orthogonalEdgeStyle;rounded=0;orthogonalLoop=1;jettySize=auto;html=1;" edge="1" parent="1" source="bVHCPU4Zqe0lrWtXgFq0-25" target="bVHCPU4Zqe0lrWtXgFq0-27">
          <mxGeometry relative="1" as="geometry" />
        </mxCell>
        <mxCell id="bVHCPU4Zqe0lrWtXgFq0-31" value="TRUE" style="edgeLabel;html=1;align=center;verticalAlign=middle;resizable=0;points=[];" vertex="1" connectable="0" parent="bVHCPU4Zqe0lrWtXgFq0-28">
          <mxGeometry x="-0.12" y="1" relative="1" as="geometry">
            <mxPoint as="offset" />
          </mxGeometry>
        </mxCell>
        <mxCell id="bVHCPU4Zqe0lrWtXgFq0-29" style="edgeStyle=orthogonalEdgeStyle;rounded=0;orthogonalLoop=1;jettySize=auto;html=1;exitX=0;exitY=0.5;exitDx=0;exitDy=0;entryX=0;entryY=0.5;entryDx=0;entryDy=0;" edge="1" parent="1" source="bVHCPU4Zqe0lrWtXgFq0-25" target="bVHCPU4Zqe0lrWtXgFq0-21">
          <mxGeometry relative="1" as="geometry">
            <Array as="points">
              <mxPoint x="90" y="1050" />
              <mxPoint x="90" y="770" />
            </Array>
          </mxGeometry>
        </mxCell>
        <mxCell id="bVHCPU4Zqe0lrWtXgFq0-30" value="FALSE" style="edgeLabel;html=1;align=center;verticalAlign=middle;resizable=0;points=[];" vertex="1" connectable="0" parent="bVHCPU4Zqe0lrWtXgFq0-29">
          <mxGeometry x="-0.7855" y="-4" relative="1" as="geometry">
            <mxPoint as="offset" />
          </mxGeometry>
        </mxCell>
        <mxCell id="bVHCPU4Zqe0lrWtXgFq0-25" value="I == A -1" style="rhombus;whiteSpace=wrap;html=1;" vertex="1" parent="1">
          <mxGeometry x="180" y="1010" width="80" height="80" as="geometry" />
        </mxCell>
        <mxCell id="bVHCPU4Zqe0lrWtXgFq0-33" style="edgeStyle=orthogonalEdgeStyle;rounded=0;orthogonalLoop=1;jettySize=auto;html=1;exitX=1;exitY=0.5;exitDx=0;exitDy=0;entryX=0;entryY=0.5;entryDx=0;entryDy=0;" edge="1" parent="1" source="bVHCPU4Zqe0lrWtXgFq0-27" target="bVHCPU4Zqe0lrWtXgFq0-32">
          <mxGeometry relative="1" as="geometry" />
        </mxCell>
        <mxCell id="bVHCPU4Zqe0lrWtXgFq0-27" value="WRITE SOMMA" style="shape=parallelogram;perimeter=parallelogramPerimeter;whiteSpace=wrap;html=1;fixedSize=1;" vertex="1" parent="1">
          <mxGeometry x="320" y="1020" width="120" height="60" as="geometry" />
        </mxCell>
        <mxCell id="bVHCPU4Zqe0lrWtXgFq0-32" value="END" style="ellipse;whiteSpace=wrap;html=1;" vertex="1" parent="1">
          <mxGeometry x="490" y="1010" width="120" height="80" as="geometry" />
        </mxCell>
      </root>
    </mxGraphModel>
  </diagram>
</mxfile>
